<?xml version="1.0" encoding="UTF-8" ?>
<!DOCTYPE svg PUBLIC "-//W3C//DTD SVG 1.1//EN" "http://www.w3.org/Graphics/SVG/1.1/DTD/svg11.dtd">
<svg width="1320pt" height="757pt" viewBox="0 0 1320 757" version="1.1" xmlns="http://www.w3.org/2000/svg">
<path fill="#ffffff" d=" M 0.00 0.00 L 1320.00 0.00 L 1320.00 757.00 L 0.00 757.00 L 0.00 0.00 Z" />
<path fill="#d4b9e8" d=" M 639.11 212.10 C 644.00 211.03 657.91 209.12 662.99 212.09 C 655.02 211.95 647.07 211.90 639.11 212.10 Z" />
<path fill="#6c21b9" d=" M 631.92 213.46 C 634.28 212.89 636.68 212.44 639.11 212.10 C 647.07 211.90 655.02 211.95 662.99 212.09 C 667.04 212.85 671.66 212.08 675.28 214.25 C 671.76 217.75 667.99 221.04 664.90 224.92 C 671.01 232.46 674.51 242.18 684.07 246.10 C 682.35 245.82 680.64 245.52 678.98 245.06 C 678.21 243.47 676.27 243.58 674.90 244.17 C 670.33 243.44 665.79 242.58 661.23 241.78 C 657.56 241.31 653.89 240.97 650.23 240.77 C 644.43 230.99 634.01 224.84 628.85 214.34 C 629.87 214.06 630.89 213.77 631.92 213.46 Z" />
<path fill="#af84dd" d=" M 626.20 213.83 C 626.94 212.02 630.39 212.67 631.92 213.46 C 630.89 213.77 629.87 214.06 628.85 214.34 C 628.19 214.21 626.86 213.96 626.20 213.83 Z" />
<path fill="#6429c9" d=" M 620.90 215.33 C 622.32 213.95 624.31 213.73 626.20 213.83 C 626.86 213.96 628.19 214.21 628.85 214.34 C 634.01 224.84 644.43 230.99 650.23 240.77 C 647.32 240.97 644.50 241.04 641.70 241.69 C 633.83 242.73 626.11 244.53 618.38 246.24 C 613.78 239.67 617.60 231.15 611.63 225.38 C 609.49 223.61 607.18 220.79 608.84 217.94 C 611.20 217.00 613.70 216.40 616.20 215.98 C 617.76 216.05 619.59 216.47 620.90 215.33 Z" />
<path fill="#6d1cab" d=" M 675.28 214.25 L 676.04 214.48 C 677.54 215.14 679.21 215.18 680.83 214.98 C 694.30 216.62 708.67 223.04 719.64 228.75 C 711.37 235.37 704.20 243.26 696.86 250.88 C 692.60 249.26 688.38 247.55 684.07 246.10 C 674.51 242.18 671.01 232.46 664.90 224.92 C 667.99 221.04 671.76 217.75 675.28 214.25 Z" />
<path fill="#a362c8" d=" M 676.04 214.48 C 677.18 213.46 680.63 213.01 680.83 214.98 C 679.21 215.18 677.54 215.14 676.04 214.48 Z" />
<path fill="#ae89e4" d=" M 616.20 215.98 C 616.41 214.12 619.69 214.50 620.90 215.33 C 619.59 216.47 617.76 216.05 616.20 215.98 Z" />
<path fill="#5c2fd7" d=" M 582.16 228.97 C 590.61 224.34 599.61 220.71 608.84 217.94 C 607.18 220.79 609.49 223.61 611.63 225.38 C 617.60 231.15 613.78 239.67 618.38 246.24 C 608.90 249.00 599.94 253.21 591.49 258.27 C 586.66 249.48 583.94 239.11 582.16 228.97 Z" />
<path fill="#5335e2" d=" M 552.95 249.93 C 561.28 241.35 571.74 234.84 582.16 228.97 C 583.94 239.11 586.66 249.48 591.49 258.27 C 583.73 262.61 576.81 268.25 570.18 274.12 C 571.09 266.05 564.08 259.32 560.80 252.29 C 559.41 249.13 555.78 249.32 552.95 249.93 Z" />
<path fill="#6318a1" d=" M 696.86 250.88 C 704.20 243.26 711.37 235.37 719.64 228.75 C 732.25 235.29 744.29 243.52 754.07 253.84 C 742.90 253.36 733.74 263.06 730.67 273.06 C 720.92 263.66 709.36 256.06 696.86 250.88 Z" />
<path fill="#8c5dd0" d=" M 641.70 241.69 C 644.50 241.04 647.32 240.97 650.23 240.77 C 653.89 240.97 657.56 241.31 661.23 241.78 C 654.71 241.93 648.20 242.13 641.70 241.69 Z" />
<path fill="#fefdfe" d=" M 618.38 246.24 C 626.11 244.53 633.83 242.73 641.70 241.69 C 648.20 242.13 654.71 241.93 661.23 241.78 C 665.79 242.58 670.33 243.44 674.90 244.17 C 675.91 245.38 677.55 245.40 678.98 245.06 C 680.64 245.52 682.35 245.82 684.07 246.10 C 688.38 247.55 692.60 249.26 696.86 250.88 C 709.36 256.06 720.92 263.66 730.67 273.06 C 736.82 279.00 742.62 285.27 747.81 292.08 C 754.82 303.25 760.28 315.31 764.26 327.88 C 763.63 329.24 763.44 331.26 765.10 332.00 C 764.58 333.66 764.38 335.66 765.77 336.99 C 766.49 340.60 766.85 344.28 767.26 347.95 C 766.74 349.59 766.44 351.60 767.83 352.93 C 768.31 360.57 767.55 368.18 766.70 375.76 C 766.35 376.80 766.02 377.85 765.69 378.90 C 764.51 380.36 764.58 382.29 765.09 384.00 C 763.49 384.75 763.61 386.68 764.14 388.07 C 763.57 389.97 763.05 391.88 762.56 393.80 C 760.79 397.85 759.56 402.12 757.52 406.05 C 756.16 408.62 754.85 411.21 753.57 413.82 C 748.63 419.61 750.49 426.61 752.78 433.11 C 755.73 443.30 758.04 453.69 761.26 463.81 C 761.33 466.33 761.09 468.87 757.90 468.17 C 754.27 467.03 750.59 466.21 747.01 464.99 C 746.14 463.49 744.29 463.59 742.92 464.15 C 741.62 463.75 740.34 463.35 739.06 463.01 C 731.05 461.03 723.12 458.70 715.21 456.48 C 709.60 458.98 704.14 461.81 698.75 464.74 C 690.32 468.05 681.74 471.04 672.88 472.99 C 669.32 473.30 665.77 473.85 662.23 474.24 C 654.74 473.99 647.25 473.99 639.77 474.25 C 637.88 474.08 636.00 473.87 634.13 473.64 C 629.43 472.95 624.87 471.69 620.26 470.66 C 613.17 468.34 606.12 465.92 599.32 462.87 C 590.04 457.47 581.03 451.63 572.76 444.77 C 572.13 443.88 571.49 443.00 570.85 442.13 C 574.89 440.66 579.04 439.51 583.18 438.36 C 588.43 437.04 593.70 435.70 598.84 433.94 C 607.30 432.07 616.81 427.89 624.87 433.29 C 630.36 435.22 636.07 436.61 641.84 437.45 C 646.83 437.94 651.90 438.13 656.94 438.03 C 661.03 438.05 665.05 437.19 669.00 436.20 C 673.75 434.98 678.59 433.92 683.10 431.96 C 689.90 428.77 696.62 425.13 702.28 420.13 C 706.68 415.55 711.85 411.58 715.46 406.30 C 717.90 402.78 719.96 399.01 722.07 395.28 C 726.72 387.00 728.98 377.58 730.30 368.25 C 731.08 362.46 731.55 356.48 730.41 350.71 C 730.18 349.45 729.95 348.19 729.72 346.94 C 729.10 343.85 728.45 340.78 727.48 337.79 C 726.82 335.66 726.00 333.59 725.12 331.55 C 723.14 326.36 720.86 321.26 717.39 316.87 C 711.82 307.81 704.19 300.05 695.15 294.46 C 688.97 289.76 681.49 287.22 674.21 284.79 C 669.64 283.41 664.93 282.55 660.24 281.76 C 654.78 280.74 649.15 280.61 643.71 281.67 C 631.03 283.94 618.18 287.85 607.73 295.61 C 595.16 304.15 585.16 316.63 579.64 330.76 C 578.29 334.15 577.12 337.59 575.86 341.01 C 574.57 342.32 574.58 344.21 574.89 345.90 C 574.42 348.89 573.90 351.94 573.93 355.00 C 573.89 357.87 574.02 360.81 574.25 363.71 C 574.20 366.55 573.76 369.53 574.76 372.28 C 576.24 377.23 577.08 382.37 578.91 387.21 C 579.73 389.59 580.90 391.82 582.04 394.05 C 580.09 410.21 574.56 425.76 570.10 441.37 C 565.08 437.18 560.93 432.12 557.08 426.88 C 552.07 419.69 547.94 411.98 543.95 404.20 C 543.39 401.64 542.62 399.12 541.31 396.84 C 538.34 388.37 536.75 379.55 535.34 370.72 C 534.93 363.19 534.94 355.66 534.94 348.13 C 535.73 339.64 537.79 331.35 540.17 323.18 C 544.99 308.04 552.57 293.67 563.32 281.89 C 565.56 279.26 567.85 276.67 570.18 274.12 C 576.81 268.25 583.73 262.61 591.49 258.27 C 599.94 253.21 608.90 249.00 618.38 246.24 Z" />
<path fill="#b18bda" d=" M 674.90 244.17 C 676.27 243.58 678.21 243.47 678.98 245.06 C 677.55 245.40 675.91 245.38 674.90 244.17 Z" />
<path fill="#4639ec" d=" M 552.95 249.93 C 555.78 249.32 559.41 249.13 560.80 252.29 C 564.08 259.32 571.09 266.05 570.18 274.12 C 567.85 276.67 565.56 279.26 563.32 281.89 C 553.53 276.37 540.98 286.86 531.01 280.96 C 529.84 279.89 528.36 280.76 527.07 281.01 C 534.08 269.49 542.63 258.60 552.95 249.93 Z" />
<path fill="#540d8d" d=" M 730.67 273.06 C 733.74 263.06 742.90 253.36 754.07 253.84 C 768.39 267.72 780.38 284.95 787.07 303.91 C 774.18 299.43 761.33 294.25 747.81 292.08 C 742.62 285.27 736.82 279.00 730.67 273.06 Z" />
<path fill="#2b3cf4" d=" M 527.07 281.01 C 528.36 280.76 529.84 279.89 531.01 280.96 C 540.98 286.86 553.53 276.37 563.32 281.89 C 552.57 293.67 544.99 308.04 540.17 323.18 C 532.11 326.24 527.64 315.00 521.37 311.60 C 518.60 309.33 515.28 306.92 515.77 302.90 C 518.82 295.26 522.11 287.64 527.07 281.01 Z" />
<path fill="#cdade4" d=" M 643.71 281.67 C 649.15 280.61 654.78 280.74 660.24 281.76 C 658.09 281.87 655.95 282.04 653.81 282.13 C 650.39 282.01 647.08 281.93 643.71 281.67 Z" />
<path fill="#6a1ead" d=" M 607.73 295.61 C 618.18 287.85 631.03 283.94 643.71 281.67 C 647.08 281.93 650.39 282.01 653.81 282.13 C 654.94 282.69 656.22 283.07 657.19 283.96 C 652.23 291.86 642.09 296.76 642.22 307.24 C 636.32 308.42 630.70 310.57 625.30 313.17 C 626.98 308.44 620.16 305.78 618.41 301.67 C 614.17 300.50 612.68 294.94 607.73 295.61 Z" />
<path fill="#6326c3" d=" M 653.81 282.13 C 655.95 282.04 658.09 281.87 660.24 281.76 C 664.93 282.55 669.64 283.41 674.21 284.79 C 668.24 291.18 667.34 299.52 666.77 307.78 C 666.28 307.93 665.31 308.24 664.82 308.40 C 662.29 307.82 659.80 307.11 657.24 306.74 C 653.41 305.74 649.52 305.98 645.70 306.68 C 644.53 306.85 643.37 307.04 642.22 307.24 C 642.09 296.76 652.23 291.86 657.19 283.96 C 656.22 283.07 654.94 282.69 653.81 282.13 Z" />
<path fill="#5a2fd6" d=" M 674.21 284.79 C 681.49 287.22 688.97 289.76 695.15 294.46 C 690.78 301.71 690.43 311.51 682.65 316.23 C 677.04 312.92 671.19 309.90 664.82 308.40 C 665.31 308.24 666.28 307.93 666.77 307.78 C 667.34 299.52 668.24 291.18 674.21 284.79 Z" />
<path fill="#100483" d=" M 747.81 292.08 C 761.33 294.25 774.18 299.43 787.07 303.91 C 790.34 310.28 792.36 317.98 794.01 325.19 C 793.84 326.80 793.77 328.50 794.59 329.97 L 794.94 330.85 C 798.30 339.85 789.32 336.92 784.59 337.53 C 778.75 336.65 770.91 340.84 766.14 336.28 C 766.29 334.77 766.22 333.13 765.10 332.00 C 765.43 330.56 765.33 328.98 764.26 327.88 C 760.28 315.31 754.82 303.25 747.81 292.08 Z" />
<path fill="#4b37e6" d=" M 682.65 316.23 C 690.43 311.51 690.78 301.71 695.15 294.46 C 704.19 300.05 711.82 307.81 717.39 316.87 C 707.76 319.60 697.79 316.93 688.04 316.96 C 686.57 316.82 685.80 317.50 685.71 319.00 C 684.66 318.10 683.66 317.16 682.65 316.23 Z" />
<path fill="#581296" d=" M 579.64 330.76 C 585.16 316.63 595.16 304.15 607.73 295.61 C 612.68 294.94 614.17 300.50 618.41 301.67 C 620.16 305.78 626.98 308.44 625.30 313.17 C 620.44 315.63 616.41 319.34 612.31 322.86 C 600.88 321.82 590.27 327.40 579.64 330.76 Z" />
<path fill="#4666f6" d=" M 509.78 322.20 C 511.05 315.69 512.45 308.68 515.77 302.90 C 515.28 306.92 518.60 309.33 521.37 311.60 C 527.64 315.00 532.11 326.24 540.17 323.18 C 537.79 331.35 535.73 339.64 534.94 348.13 C 526.53 347.02 523.05 336.26 516.61 331.37 C 514.04 328.54 510.93 325.99 509.78 322.20 Z" />
<path fill="#986cd5" d=" M 645.70 306.68 C 649.52 305.98 653.41 305.74 657.24 306.74 C 653.36 306.87 649.55 307.05 645.70 306.68 Z" />
<path fill="#fefeff" d=" M 642.22 307.24 C 643.37 307.04 644.53 306.85 645.70 306.68 C 649.55 307.05 653.36 306.87 657.24 306.74 C 659.80 307.11 662.29 307.82 664.82 308.40 C 671.19 309.90 677.04 312.92 682.65 316.23 C 683.66 317.16 684.66 318.10 685.71 319.00 C 694.80 326.00 700.82 336.37 703.95 347.30 C 704.39 349.44 704.91 351.56 705.35 353.70 C 705.18 358.21 705.19 362.73 705.25 367.25 C 704.90 370.04 704.35 372.81 703.82 375.57 C 701.42 381.81 698.63 387.93 694.84 393.46 C 690.25 399.43 684.57 404.51 677.98 408.18 C 674.77 410.03 671.43 411.62 667.87 412.65 C 661.35 414.67 654.52 415.13 647.74 415.35 C 646.45 415.23 645.17 415.12 643.89 415.01 C 639.95 414.04 636.08 412.79 632.12 411.91 C 627.26 410.01 622.48 405.34 617.03 407.95 C 611.25 408.23 605.41 413.22 599.62 411.15 C 601.29 406.13 602.59 401.00 604.00 395.91 C 605.83 391.29 603.86 386.84 601.45 382.95 C 600.33 379.60 599.25 376.24 598.37 372.82 C 597.58 367.53 596.75 362.21 596.97 356.85 C 597.45 354.60 597.89 352.34 598.19 350.05 C 599.96 339.80 605.58 330.62 612.31 322.86 C 616.41 319.34 620.44 315.63 625.30 313.17 C 630.70 310.57 636.32 308.42 642.22 307.24 Z" />
<path fill="#2a38ee" d=" M 685.71 319.00 C 685.80 317.50 686.57 316.82 688.04 316.96 C 697.79 316.93 707.76 319.60 717.39 316.87 C 720.86 321.26 723.14 326.36 725.12 331.55 C 717.38 335.82 712.77 345.22 703.95 347.30 C 700.82 336.37 694.80 326.00 685.71 319.00 Z" />
<path fill="#5985f5" d=" M 506.20 338.77 C 506.41 333.54 508.06 326.02 509.78 322.20 C 510.93 325.99 514.04 328.54 516.61 331.37 C 523.05 336.26 526.53 347.02 534.94 348.13 C 534.94 355.66 534.93 363.19 535.34 370.72 C 535.20 372.60 534.93 376.35 534.79 378.23 C 525.41 364.96 516.32 351.50 506.20 338.77 Z" />
<path fill="#150686" d=" M 579.64 330.76 C 590.27 327.40 600.88 321.82 612.31 322.86 C 605.58 330.62 599.96 339.80 598.19 350.05 C 591.83 354.91 582.47 348.47 575.01 349.92 C 574.95 348.58 574.91 347.24 574.89 345.90 C 576.71 344.90 576.37 342.66 575.86 341.01 C 577.12 337.59 578.29 334.15 579.64 330.76 Z" />
<path fill="#756cc3" d=" M 794.01 325.19 C 795.95 325.36 795.51 328.78 794.59 329.97 C 793.77 328.50 793.84 326.80 794.01 325.19 Z" />
<path fill="#7e76be" d=" M 764.26 327.88 C 765.33 328.98 765.43 330.56 765.10 332.00 C 763.44 331.26 763.63 329.24 764.26 327.88 Z" />
<path fill="#3b0498" d=" M 794.94 330.85 C 797.10 331.18 795.64 334.60 796.07 336.21 C 795.92 338.09 795.95 339.99 796.18 341.87 C 796.20 344.65 796.09 347.94 793.04 349.08 C 785.32 351.92 777.06 353.10 769.09 355.09 C 768.92 353.69 768.75 352.31 768.48 350.94 C 768.31 349.84 767.90 348.85 767.26 347.95 C 766.85 344.28 766.49 340.60 765.77 336.99 L 766.14 336.28 C 770.91 340.84 778.75 336.65 784.59 337.53 C 789.32 336.92 798.30 339.85 794.94 330.85 Z" />
<path fill="#4061f2" d=" M 703.95 347.30 C 712.77 345.22 717.38 335.82 725.12 331.55 C 726.00 333.59 726.82 335.66 727.48 337.79 C 723.55 348.14 713.06 354.75 706.38 363.37 C 706.10 360.11 706.16 356.87 705.35 353.70 C 704.91 351.56 704.39 349.44 703.95 347.30 Z" />
<path fill="#8982c4" d=" M 765.10 332.00 C 766.22 333.13 766.29 334.77 766.14 336.28 L 765.77 336.99 C 764.38 335.66 764.58 333.66 765.10 332.00 Z" />
<path fill="#9271ce" d=" M 796.07 336.21 C 797.81 336.93 797.47 340.30 796.76 341.85 L 796.18 341.87 C 795.95 339.99 795.92 338.09 796.07 336.21 Z" />
<path fill="#5381f0" d=" M 727.48 337.79 C 728.45 340.78 729.10 343.85 729.72 346.94 C 725.17 358.34 715.87 367.66 711.04 379.30 C 708.91 377.55 706.70 375.74 703.82 375.57 C 704.35 372.81 704.90 370.04 705.25 367.25 C 705.62 365.96 705.99 364.66 706.38 363.37 C 713.06 354.75 723.55 348.14 727.48 337.79 Z" />
<path fill="#629af2" d=" M 506.20 338.77 C 516.32 351.50 525.41 364.96 534.79 378.23 C 534.93 376.35 535.20 372.60 535.34 370.72 C 536.75 379.55 538.34 388.37 541.31 396.84 C 535.76 394.11 528.79 389.25 524.82 397.25 C 521.50 378.32 504.59 363.82 505.95 344.02 C 505.93 342.26 506.03 340.51 506.20 338.77 Z" />
<path fill="#aca7dc" d=" M 574.89 345.90 C 574.58 344.21 574.57 342.32 575.86 341.01 C 576.37 342.66 576.71 344.90 574.89 345.90 Z" />
<path fill="#5a02a1" d=" M 796.18 341.87 L 796.76 341.85 C 796.95 348.57 797.08 355.32 797.04 362.06 C 789.64 364.17 782.08 365.72 774.61 367.60 C 765.61 371.00 770.01 359.53 769.09 355.09 C 777.06 353.10 785.32 351.92 793.04 349.08 C 796.09 347.94 796.20 344.65 796.18 341.87 Z" />
<path fill="#b78cdb" d=" M 796.76 341.85 C 798.42 349.80 799.46 365.60 796.63 373.12 C 796.81 369.41 797.07 365.76 797.04 362.06 C 797.08 355.32 796.95 348.57 796.76 341.85 Z" />
<path fill="#6eb0f4" d=" M 520.14 422.20 C 507.04 399.17 503.30 368.84 505.95 344.02 C 504.59 363.82 521.50 378.32 524.82 397.25 C 521.44 404.99 522.95 414.13 520.14 422.20 Z" />
<path fill="#a88dd7" d=" M 573.93 355.00 C 573.90 351.94 574.42 348.89 574.89 345.90 C 574.91 347.24 574.95 348.58 575.01 349.92 C 574.98 351.62 574.95 353.31 574.92 355.02 L 573.93 355.00 Z" />
<path fill="#5b9fef" d=" M 711.04 379.30 C 715.87 367.66 725.17 358.34 729.72 346.94 C 729.95 348.19 730.18 349.45 730.41 350.71 C 730.19 354.01 730.07 357.36 729.86 360.68 C 721.93 369.13 719.86 384.16 722.07 395.28 C 719.96 399.01 717.90 402.78 715.46 406.30 C 713.97 397.27 709.82 388.67 711.04 379.30 Z" />
<path fill="#c196dc" d=" M 767.26 347.95 C 767.90 348.85 768.31 349.84 768.48 350.94 C 768.32 351.44 767.99 352.43 767.83 352.93 C 766.44 351.60 766.74 349.59 767.26 347.95 Z" />
<path fill="#480398" d=" M 575.01 349.92 C 582.47 348.47 591.83 354.91 598.19 350.05 C 597.89 352.34 597.45 354.60 596.97 356.85 C 599.05 368.75 586.72 361.71 580.58 361.53 C 575.24 362.81 574.62 358.53 574.92 355.02 C 574.95 353.31 574.98 351.62 575.01 349.92 Z" />
<path fill="#bad3fc" d=" M 730.41 350.71 C 731.55 356.48 731.08 362.46 730.30 368.25 C 730.19 366.36 729.97 362.57 729.86 360.68 C 730.07 357.36 730.19 354.01 730.41 350.71 Z" />
<path fill="#7a04a8" d=" M 768.48 350.94 C 768.75 352.31 768.92 353.69 769.09 355.09 C 770.01 359.53 765.61 371.00 774.61 367.60 C 782.08 365.72 789.64 364.17 797.04 362.06 C 797.07 365.76 796.81 369.41 796.63 373.12 C 796.27 374.38 795.94 375.65 795.69 376.94 C 787.54 380.21 778.57 380.75 769.96 381.98 C 766.38 382.67 766.99 378.00 766.70 375.76 C 767.55 368.18 768.31 360.57 767.83 352.93 C 767.99 352.43 768.32 351.44 768.48 350.94 Z" />
<path fill="#9ab1f4" d=" M 705.35 353.70 C 706.16 356.87 706.10 360.11 706.38 363.37 C 705.99 364.66 705.62 365.96 705.25 367.25 C 705.19 362.73 705.18 358.21 705.35 353.70 Z" />
<path fill="#7b06a4" d=" M 573.93 355.00 L 574.92 355.02 C 574.62 358.53 575.24 362.81 580.58 361.53 C 586.72 361.71 599.05 368.75 596.97 356.85 C 596.75 362.21 597.58 367.53 598.37 372.82 C 593.08 377.55 582.19 372.86 574.76 372.28 C 574.70 369.38 575.11 366.49 574.25 363.71 C 574.02 360.81 573.89 357.87 573.93 355.00 Z" />
<path fill="#6fb1f4" d=" M 722.07 395.28 C 719.86 384.16 721.93 369.13 729.86 360.68 C 729.97 362.57 730.19 366.36 730.30 368.25 C 728.98 377.58 726.72 387.00 722.07 395.28 Z" />
<path fill="#bc7dd9" d=" M 574.25 363.71 C 575.11 366.49 574.70 369.38 574.76 372.28 C 573.76 369.53 574.20 366.55 574.25 363.71 Z" />
<path fill="#a506a9" d=" M 574.76 372.28 C 582.19 372.86 593.08 377.55 598.37 372.82 C 599.25 376.24 600.33 379.60 601.45 382.95 C 593.92 384.30 586.44 385.95 578.91 387.21 C 577.08 382.37 576.24 377.23 574.76 372.28 Z" />
<path fill="#b869d5" d=" M 795.69 376.94 C 795.94 375.65 796.27 374.38 796.63 373.12 C 797.31 374.96 798.03 378.76 796.16 379.76 C 796.04 379.06 795.80 377.65 795.69 376.94 Z" />
<path fill="#3e8fe1" d=" M 694.84 393.46 C 698.63 387.93 701.42 381.81 703.82 375.57 C 706.70 375.74 708.91 377.55 711.04 379.30 C 709.82 388.67 713.97 397.27 715.46 406.30 C 711.85 411.58 706.68 415.55 702.28 420.13 C 699.84 411.61 700.26 400.20 694.84 393.46 Z" />
<path fill="#9705ad" d=" M 765.69 378.90 C 766.02 377.85 766.35 376.80 766.70 375.76 C 766.99 378.00 766.38 382.67 769.96 381.98 C 778.57 380.75 787.54 380.21 795.69 376.94 C 795.80 377.65 796.04 379.06 796.16 379.76 C 795.59 384.13 795.58 389.72 793.12 393.14 C 783.60 396.44 772.21 395.78 762.56 393.80 C 763.05 391.88 763.57 389.97 764.14 388.07 C 765.37 387.08 765.44 385.43 765.09 384.00 C 766.63 382.71 766.36 380.57 765.69 378.90 Z" />
<path fill="#cc8cd4" d=" M 765.09 384.00 C 764.58 382.29 764.51 380.36 765.69 378.90 C 766.36 380.57 766.63 382.71 765.09 384.00 Z" />
<path fill="#c704a4" d=" M 601.45 382.95 C 603.86 386.84 605.83 391.29 604.00 395.91 C 599.59 396.60 595.06 397.01 591.02 399.03 C 587.86 397.72 584.55 396.45 582.04 394.05 C 580.90 391.82 579.73 389.59 578.91 387.21 C 586.44 385.95 593.92 384.30 601.45 382.95 Z" />
<path fill="#c97dce" d=" M 764.14 388.07 C 763.61 386.68 763.49 384.75 765.09 384.00 C 765.44 385.43 765.37 387.08 764.14 388.07 Z" />
<path fill="#58a7ed" d=" M 524.82 397.25 C 528.79 389.25 535.76 394.11 541.31 396.84 C 542.62 399.12 543.39 401.64 543.95 404.20 C 542.30 397.30 536.51 402.62 538.01 408.01 C 539.30 419.86 531.12 429.56 530.87 441.00 C 526.84 435.54 522.23 428.77 520.14 422.20 C 522.95 414.13 521.44 404.99 524.82 397.25 Z" />
<path fill="#af04ad" d=" M 762.56 393.80 C 772.21 395.78 783.60 396.44 793.12 393.14 C 792.50 399.06 790.43 404.70 787.92 410.05 C 777.79 408.85 767.41 408.57 757.52 406.05 C 759.56 402.12 760.79 397.85 762.56 393.80 Z" />
<path fill="#e108b9" d=" M 582.04 394.05 C 584.55 396.45 587.86 397.72 591.02 399.03 C 587.50 410.11 587.56 422.06 582.88 432.88 C 582.66 434.78 579.54 438.63 583.18 438.36 C 579.04 439.51 574.89 440.66 570.85 442.13 C 570.67 441.94 570.29 441.56 570.10 441.37 C 574.56 425.76 580.09 410.21 582.04 394.05 Z" />
<path fill="#2d6ec7" d=" M 677.98 408.18 C 684.57 404.51 690.25 399.43 694.84 393.46 C 700.26 400.20 699.84 411.61 702.28 420.13 C 696.62 425.13 689.90 428.77 683.10 431.96 C 682.50 423.82 679.75 416.08 677.98 408.18 Z" />
<path fill="#eb03a2" d=" M 591.02 399.03 C 595.06 397.01 599.59 396.60 604.00 395.91 C 602.59 401.00 601.29 406.13 599.62 411.15 C 597.95 413.56 601.45 412.79 602.94 413.27 C 602.93 420.36 600.81 427.20 598.84 433.94 C 593.70 435.70 588.43 437.04 583.18 438.36 C 579.54 438.63 582.66 434.78 582.88 432.88 C 587.56 422.06 587.50 410.11 591.02 399.03 Z" />
<path fill="#459ce6" d=" M 538.01 408.01 C 536.51 402.62 542.30 397.30 543.95 404.20 C 547.94 411.98 552.07 419.69 557.08 426.88 C 554.31 426.56 549.03 423.69 551.66 430.81 C 548.89 439.51 546.96 448.46 543.82 457.07 C 538.82 452.40 534.49 446.82 530.87 441.00 C 531.12 429.56 539.30 419.86 538.01 408.01 Z" />
<path fill="#c404ac" d=" M 753.57 413.82 C 754.85 411.21 756.16 408.62 757.52 406.05 C 767.41 408.57 777.79 408.85 787.92 410.05 C 786.62 414.87 784.39 419.59 781.82 423.88 C 780.96 425.09 780.11 426.30 779.25 427.50 C 771.24 421.87 761.92 418.76 753.57 413.82 Z" />
<path fill="#fc0e8c" d=" M 617.03 407.95 C 622.48 405.34 627.26 410.01 632.12 411.91 C 630.64 418.49 633.91 431.66 624.87 433.29 C 616.81 427.89 607.30 432.07 598.84 433.94 C 600.81 427.20 602.93 420.36 602.94 413.27 C 601.45 412.79 597.95 413.56 599.62 411.15 C 605.41 413.22 611.25 408.23 617.03 407.95 Z" />
<path fill="#fb8bc5" d=" M 667.87 412.65 C 671.43 411.62 674.77 410.03 677.98 408.18 C 679.75 416.08 682.50 423.82 683.10 431.96 C 678.59 433.92 673.75 434.98 669.00 436.20 C 668.07 428.98 676.10 416.41 667.87 412.65 Z" />
<path fill="#fe3a9d" d=" M 632.12 411.91 C 636.08 412.79 639.95 414.04 643.89 415.01 C 648.70 418.52 646.30 424.52 645.51 429.44 C 644.02 431.59 645.48 436.88 641.84 437.45 C 636.07 436.61 630.36 435.22 624.87 433.29 C 633.91 431.66 630.64 418.49 632.12 411.91 Z" />
<path fill="#fe74ba" d=" M 647.74 415.35 C 654.52 415.13 661.35 414.67 667.87 412.65 C 676.10 416.41 668.07 428.98 669.00 436.20 C 665.05 437.19 661.03 438.05 656.94 438.03 C 657.10 431.42 659.37 424.87 658.81 418.28 C 656.44 414.61 651.35 416.61 647.74 415.35 Z" />
<path fill="#d604a5" d=" M 752.78 433.11 C 750.49 426.61 748.63 419.61 753.57 413.82 C 761.92 418.76 771.24 421.87 779.25 427.50 C 777.30 430.70 774.50 433.31 772.86 436.70 C 766.45 434.40 758.55 436.74 752.78 433.11 Z" />
<path fill="#fe57ac" d=" M 643.89 415.01 C 645.17 415.12 646.45 415.23 647.74 415.35 C 651.35 416.61 656.44 414.61 658.81 418.28 C 659.37 424.87 657.10 431.42 656.94 438.03 C 651.90 438.13 646.83 437.94 641.84 437.45 C 645.48 436.88 644.02 431.59 645.51 429.44 C 646.30 424.52 648.70 418.52 643.89 415.01 Z" />
<path fill="#e106ba" d=" M 779.25 427.50 C 780.11 426.30 780.96 425.09 781.82 423.88 C 787.85 453.19 797.86 481.77 804.04 511.05 C 799.68 509.96 793.04 509.67 790.36 507.31 C 791.00 501.78 786.00 497.36 784.95 492.01 C 776.71 474.59 778.62 454.66 772.86 436.70 C 774.50 433.31 777.30 430.70 779.25 427.50 Z" />
<path fill="#3586d9" d=" M 551.66 430.81 C 549.03 423.69 554.31 426.56 557.08 426.88 C 560.93 432.12 565.08 437.18 570.10 441.37 C 570.29 441.56 570.67 441.94 570.85 442.13 C 571.49 443.00 572.13 443.88 572.76 444.77 C 568.60 453.37 568.05 463.37 565.47 472.59 C 564.57 474.82 566.96 476.40 567.93 478.15 C 558.81 472.77 551.02 464.86 543.82 457.07 C 546.96 448.46 548.89 439.51 551.66 430.81 Z" />
<path fill="#e903aa" d=" M 752.78 433.11 C 758.55 436.74 766.45 434.40 772.86 436.70 C 778.62 454.66 776.71 474.59 784.95 492.01 C 786.00 497.36 791.00 501.78 790.36 507.31 C 783.59 505.56 773.52 503.68 768.35 501.34 C 769.06 500.23 770.42 499.05 769.33 497.71 C 765.16 488.56 764.51 478.03 760.00 469.14 C 764.41 470.23 761.89 466.17 761.26 463.81 C 758.04 453.69 755.73 443.30 752.78 433.11 Z" />
<path fill="#2969c4" d=" M 565.47 472.59 C 568.05 463.37 568.60 453.37 572.76 444.77 C 581.03 451.63 590.04 457.47 599.32 462.87 C 597.59 472.84 594.73 482.64 593.97 492.77 C 584.74 489.08 575.60 484.43 567.93 478.15 C 566.96 476.40 564.57 474.82 565.47 472.59 Z" />
<path fill="#fd0a89" d=" M 715.21 456.48 C 723.12 458.70 731.05 461.03 739.06 463.01 C 740.65 473.43 742.63 483.82 746.20 493.76 C 746.92 494.84 746.55 495.29 745.10 495.11 C 735.94 494.07 727.31 490.01 718.23 488.46 C 713.66 490.39 709.28 492.72 704.62 494.39 C 701.96 492.83 699.48 490.64 700.02 487.01 C 699.15 479.72 695.61 471.87 698.75 464.74 C 704.14 461.81 709.60 458.98 715.21 456.48 Z" />
<path fill="#fd90c7" d=" M 599.32 462.87 C 606.12 465.92 613.17 468.34 620.26 470.66 C 609.98 467.10 613.13 477.05 613.18 482.87 C 614.41 488.64 614.00 495.22 617.90 500.07 C 609.35 500.10 601.86 495.44 593.97 492.77 C 594.73 482.64 597.59 472.84 599.32 462.87 Z" />
<path fill="#f30499" d=" M 739.06 463.01 C 740.34 463.35 741.62 463.75 742.92 464.15 C 743.90 465.41 745.58 465.41 747.01 464.99 C 750.59 466.21 754.27 467.03 757.90 468.17 C 758.43 468.42 759.48 468.90 760.00 469.14 C 764.51 478.03 765.16 488.56 769.33 497.71 C 770.42 499.05 769.06 500.23 768.35 501.34 C 760.91 499.57 751.20 498.02 745.10 495.11 C 746.55 495.29 746.92 494.84 746.20 493.76 C 742.63 483.82 740.65 473.43 739.06 463.01 Z" />
<path fill="#fb88cb" d=" M 742.92 464.15 C 744.29 463.59 746.14 463.49 747.01 464.99 C 745.58 465.41 743.90 465.41 742.92 464.15 Z" />
<path fill="#f784d3" d=" M 761.26 463.81 C 761.89 466.17 764.41 470.23 760.00 469.14 C 759.48 468.90 758.43 468.42 757.90 468.17 C 761.09 468.87 761.33 466.33 761.26 463.81 Z" />
<path fill="#fe2f98" d=" M 672.88 472.99 C 681.74 471.04 690.32 468.05 698.75 464.74 C 695.61 471.87 699.15 479.72 700.02 487.01 C 699.48 490.64 701.96 492.83 704.62 494.39 C 698.89 497.16 688.84 500.17 680.91 501.20 C 680.25 501.07 678.92 500.82 678.25 500.70 C 675.21 491.77 674.55 482.24 672.88 472.99 Z" />
<path fill="#fe7cbe" d=" M 613.18 482.87 C 613.13 477.05 609.98 467.10 620.26 470.66 C 624.87 471.69 629.43 472.95 634.13 473.64 C 632.66 474.35 630.21 474.77 631.08 476.96 C 632.42 486.01 632.55 495.76 637.17 503.92 C 630.79 503.22 623.57 502.69 617.90 500.07 C 614.00 495.22 614.41 488.64 613.18 482.87 Z" />
<path fill="#fe4ba6" d=" M 662.23 474.24 C 665.77 473.85 669.32 473.30 672.88 472.99 C 674.55 482.24 675.21 491.77 678.25 500.70 C 678.92 500.82 680.25 501.07 680.91 501.20 C 676.51 502.97 668.91 503.26 663.00 504.06 C 661.23 504.05 657.69 504.04 655.92 504.04 C 654.79 494.30 651.86 484.89 650.91 475.14 C 654.68 474.96 658.46 474.66 662.23 474.24 Z" />
<path fill="#fe64b2" d=" M 631.08 476.96 C 630.21 474.77 632.66 474.35 634.13 473.64 C 636.00 473.87 637.88 474.08 639.77 474.25 C 643.46 474.63 647.18 474.93 650.91 475.14 C 651.86 484.89 654.79 494.30 655.92 504.04 C 650.58 504.03 645.29 503.96 639.98 504.02 C 639.27 504.00 637.87 503.94 637.17 503.92 C 632.55 495.76 632.42 486.01 631.08 476.96 Z" />
<path fill="#febddd" d=" M 639.77 474.25 C 647.25 473.99 654.74 473.99 662.23 474.24 C 658.46 474.66 654.68 474.96 650.91 475.14 C 647.18 474.93 643.46 474.63 639.77 474.25 Z" />
<path fill="#fec4e1" d=" M 639.98 504.02 C 645.29 503.96 650.58 504.03 655.92 504.04 C 657.69 504.04 661.23 504.05 663.00 504.06 C 657.94 504.95 645.02 506.73 639.98 504.02 Z" />
<path fill="#35a2fe" d=" M 489.01 542.05 C 491.26 533.88 503.52 532.03 508.78 538.22 C 511.70 540.94 513.14 549.12 507.23 546.92 C 508.33 539.34 498.07 536.10 493.71 541.72 C 492.79 550.34 492.04 559.78 493.75 568.28 C 497.50 574.40 509.29 570.92 507.20 562.99 C 510.80 562.01 512.83 566.35 510.37 569.35 C 506.81 578.25 492.66 577.19 489.09 568.72 C 488.97 559.83 488.96 550.94 489.01 542.05 Z" />
<path fill="#89c8fe" d=" M 518.04 535.05 C 519.14 535.39 522.27 533.92 521.96 535.81 C 521.25 535.93 519.82 536.16 519.10 536.28 C 518.99 548.76 518.73 561.28 519.13 573.77 C 519.84 573.88 521.25 574.09 521.96 574.19 C 522.28 576.07 519.13 574.60 518.04 574.95 C 517.95 561.65 517.95 548.34 518.04 535.05 Z" />
<path fill="#81c5fe" d=" M 530.01 535.00 L 535.00 535.00 C 535.00 536.50 534.99 539.50 534.99 541.00 L 530.00 541.00 C 530.00 539.50 530.01 536.50 530.01 535.00 Z" />
<path fill="#36a2fe" d=" M 624.09 541.26 C 627.72 532.49 642.40 532.29 645.74 541.33 C 650.68 547.01 640.82 549.59 641.79 544.09 C 640.92 537.60 631.43 537.45 628.15 542.26 C 627.95 550.74 627.69 559.27 628.22 567.74 C 632.32 574.51 643.39 571.15 642.24 563.03 C 648.62 561.93 645.98 571.28 642.24 573.24 C 636.47 577.27 626.83 575.77 624.00 568.93 C 623.97 559.70 623.95 550.48 624.09 541.26 Z" />
<path fill="#68baff" d=" M 651.98 540.00 C 645.26 535.77 655.88 533.43 654.78 535.68 C 650.80 546.28 653.60 561.48 653.29 573.72 C 653.78 573.91 654.75 574.29 655.24 574.48 L 654.99 575.28 C 654.26 575.19 652.79 575.01 652.06 574.91 C 651.88 563.27 652.04 551.63 651.98 540.00 Z" />
<path fill="#81c5ff" d=" M 735.05 535.05 C 740.82 534.41 745.81 534.72 750.02 535.97 C 745.34 536.00 740.70 535.74 736.06 536.11 C 736.00 548.71 735.76 561.33 736.11 573.93 C 741.05 574.04 746.06 574.05 751.03 574.01 C 747.87 576.69 739.74 574.17 735.04 574.95 C 734.95 561.65 734.93 548.34 735.05 535.05 Z" />
<path fill="#78c1fe" d=" M 816.04 535.81 C 815.71 533.92 818.85 535.39 819.96 535.05 C 820.09 546.69 819.95 558.34 820.02 570.00 C 827.34 574.94 815.40 576.01 817.46 574.46 C 820.97 562.96 818.30 548.72 818.87 536.23 C 818.16 536.12 816.75 535.91 816.04 535.81 Z" />
<path fill="#2d9efe" d=" M 519.10 536.28 C 519.82 536.16 521.25 535.93 521.96 535.81 C 522.01 548.60 522.03 561.39 521.96 574.19 C 521.25 574.09 519.84 573.88 519.13 573.77 C 518.73 561.28 518.99 548.76 519.10 536.28 Z" />
<path fill="#b4dcff" d=" M 521.96 535.81 C 523.13 546.50 524.52 563.56 521.96 574.19 C 522.03 561.39 522.01 548.60 521.96 535.81 Z" />
<path fill="#2199fe" d=" M 531.03 536.02 C 534.26 534.94 534.38 537.45 533.97 539.98 C 530.73 541.05 530.61 538.54 531.03 536.02 Z" />
<path fill="#33a1fe" d=" M 653.29 573.72 C 653.60 561.48 650.80 546.28 654.78 535.68 C 659.24 536.38 651.95 549.21 658.69 546.68 C 664.85 543.35 672.85 549.08 670.97 556.00 C 668.97 561.36 675.29 573.34 667.83 575.22 C 665.79 567.55 668.51 559.16 666.26 551.73 C 664.37 548.55 658.68 548.94 656.72 551.73 C 654.76 559.10 657.38 567.14 655.24 574.48 C 654.75 574.29 653.78 573.91 653.29 573.72 Z" />
<path fill="#2c9efe" d=" M 736.06 536.11 C 740.70 535.74 745.34 536.00 750.02 535.97 C 757.55 536.59 759.24 547.06 755.18 552.19 C 752.47 554.50 756.59 556.58 757.00 559.06 C 756.95 562.00 757.03 565.05 757.00 568.04 C 756.45 570.62 753.98 574.09 751.03 574.01 C 746.06 574.05 741.05 574.04 736.11 573.93 C 735.76 561.33 736.00 548.71 736.06 536.11 Z" />
<path fill="#92cdff" d=" M 797.05 575.00 C 798.19 562.71 794.81 546.62 798.03 535.92 C 798.09 548.60 797.78 561.29 798.07 573.97 C 798.79 573.98 800.23 573.99 800.94 573.99 C 801.16 565.32 800.81 556.66 801.06 548.01 C 802.42 547.71 803.04 548.27 802.91 549.69 C 801.19 558.02 802.34 566.56 801.96 575.00 L 797.05 575.00 Z" />
<path fill="#2c9efe" d=" M 798.03 535.92 C 800.03 535.65 801.19 537.45 801.91 539.07 C 805.66 546.31 810.59 552.92 814.12 560.29 C 813.93 561.71 814.54 562.28 815.94 562.02 C 816.12 553.28 815.95 544.54 816.04 535.81 C 816.75 535.91 818.16 536.12 818.87 536.23 C 818.30 548.72 820.97 562.96 817.46 574.46 C 812.61 566.23 807.58 558.04 802.91 549.69 C 803.04 548.27 802.42 547.71 801.06 548.01 C 800.81 556.66 801.16 565.32 800.94 573.99 C 800.23 573.99 798.79 573.98 798.07 573.97 C 797.78 561.29 798.09 548.60 798.03 535.92 Z" />
<path fill="#9fd2fe" d=" M 814.12 560.29 C 816.93 552.84 812.61 541.97 816.04 535.81 C 815.95 544.54 816.12 553.28 815.94 562.02 C 814.54 562.28 813.93 561.71 814.12 560.29 Z" />
<path fill="#87c8fe" d=" M 740.01 540.01 C 739.49 538.11 748.54 538.24 749.03 539.99 C 745.95 539.93 743.02 540.00 740.01 540.01 Z" />
<path fill="#39a4fe" d=" M 593.83 545.75 C 592.06 540.88 594.23 539.30 597.87 540.04 C 593.13 549.92 606.69 542.29 605.03 549.90 C 593.23 546.34 597.95 562.46 598.72 569.29 C 599.67 572.23 605.35 568.91 605.00 572.06 C 606.54 578.25 595.86 574.78 595.01 570.94 C 592.43 564.95 600.68 548.17 589.97 549.93 C 586.74 548.53 591.11 544.84 593.83 545.75 Z" />
<path fill="#30a0fe" d=" M 704.83 545.75 C 700.60 537.86 713.62 537.97 709.06 545.92 C 709.31 548.82 716.42 545.03 715.21 549.85 C 703.48 545.99 707.44 562.83 708.93 569.08 C 710.66 570.69 712.95 571.02 715.21 571.31 C 715.53 575.01 711.90 574.15 709.07 574.09 C 707.38 573.23 705.66 571.72 704.99 569.93 C 702.59 564.12 710.42 548.26 699.96 549.87 C 699.02 546.56 702.25 545.72 704.83 545.75 Z" />
<path fill="#add9ff" d=" M 740.01 551.93 C 738.67 551.18 737.40 541.07 740.01 540.01 C 739.99 543.97 739.99 547.94 740.01 551.93 Z" />
<path fill="#f7fbff" d=" M 740.01 540.01 C 743.02 540.00 745.95 539.93 749.03 539.99 C 753.98 539.95 754.71 547.69 751.31 550.31 C 748.65 553.59 743.68 551.59 740.01 551.93 C 739.99 547.94 739.99 543.97 740.01 540.01 Z" />
<path fill="#b0dbff" d=" M 624.00 568.93 C 623.01 562.94 621.23 546.55 624.09 541.26 C 623.95 550.48 623.97 559.70 624.00 568.93 Z" />
<path fill="#c9e6ff" d=" M 489.09 568.72 C 487.85 563.42 486.48 547.82 489.01 542.05 C 488.96 550.94 488.97 559.83 489.09 568.72 Z" />
<path fill="#b2dbff" d=" M 493.75 568.28 C 492.04 559.78 492.79 550.34 493.71 541.72 C 493.99 550.55 494.42 559.44 493.75 568.28 Z" />
<path fill="#33a1fe" d=" M 531.00 547.00 C 530.15 545.38 534.85 545.39 534.00 547.00 C 533.95 555.99 534.16 564.98 533.94 573.98 C 533.22 573.98 531.78 573.98 531.06 573.99 C 530.85 564.98 531.02 555.99 531.00 547.00 Z" />
<path fill="#34a1fe" d=" M 542.02 551.07 C 545.01 544.05 556.96 544.03 560.01 551.06 C 559.97 554.33 560.02 557.69 559.99 560.99 C 554.98 561.04 549.99 560.72 545.00 561.13 C 545.29 563.52 544.18 566.92 545.72 569.26 C 548.97 573.91 557.45 570.86 556.21 565.07 C 565.24 562.76 557.48 579.21 551.02 575.02 C 547.89 575.67 541.94 574.04 541.99 570.01 C 541.98 563.69 541.95 557.38 542.02 551.07 Z" />
<path fill="#8bc9fe" d=" M 566.10 546.07 C 566.49 546.25 567.28 546.61 567.67 546.79 C 566.60 555.79 566.83 564.91 567.08 573.97 C 567.79 573.98 569.23 573.99 569.95 573.99 C 570.86 566.69 568.49 558.74 570.74 551.73 C 571.06 559.47 571.18 567.24 570.94 574.99 L 566.05 575.00 C 566.05 565.35 565.74 555.70 566.10 546.07 Z" />
<path fill="#2c9efe" d=" M 567.67 546.79 C 573.14 548.46 582.00 542.81 584.90 551.28 C 585.01 558.91 585.03 566.55 584.96 574.20 C 577.13 572.46 585.34 558.40 581.23 552.73 C 579.20 549.12 573.11 548.39 570.74 551.73 C 568.49 558.74 570.86 566.69 569.95 573.99 C 569.23 573.99 567.79 573.98 567.08 573.97 C 566.83 564.91 566.60 555.79 567.67 546.79 Z" />
<path fill="#37a3fe" d=" M 677.64 551.64 C 680.29 543.52 693.85 543.74 695.99 552.06 C 696.01 559.31 696.12 566.56 695.96 573.82 C 694.94 573.66 693.92 573.51 692.91 573.38 C 687.65 575.91 679.47 576.28 677.25 569.66 C 673.75 560.20 684.74 556.64 692.01 557.88 C 696.07 549.72 682.04 546.26 681.04 554.06 C 679.33 556.49 674.99 554.63 677.64 551.64 Z" />
<path fill="#90ccfe" d=" M 709.06 545.92 C 713.42 542.63 718.49 547.76 715.21 549.85 C 716.42 545.03 709.31 548.82 709.06 545.92 Z" />
<path fill="#42a8fe" d=" M 760.24 546.16 C 768.29 546.37 765.51 560.73 770.78 564.89 C 773.21 558.60 774.70 551.91 778.07 546.03 C 780.53 545.32 781.73 546.42 780.89 548.91 C 776.56 560.59 772.11 572.25 768.03 584.02 C 767.57 586.00 765.72 586.25 763.99 586.02 C 763.53 580.95 767.36 576.86 768.02 572.00 C 765.82 563.47 761.86 555.48 759.17 547.10 C 759.44 546.87 759.97 546.40 760.24 546.16 Z" />
<path fill="#36a2fe" d=" M 827.00 555.00 C 824.95 544.86 842.93 542.10 845.01 550.99 C 844.66 558.68 845.85 566.58 844.41 574.19 C 839.22 572.86 832.26 577.75 828.21 571.81 C 823.05 564.67 830.74 555.44 838.99 558.05 C 845.91 559.70 840.51 545.49 834.98 549.96 C 830.94 549.60 832.03 557.16 827.00 555.00 Z" />
<path fill="#8fcbfe" d=" M 851.05 546.04 C 857.33 546.00 863.65 545.76 869.95 546.08 C 869.61 547.12 871.05 550.47 869.15 549.88 C 869.40 546.69 867.67 545.71 863.98 546.94 C 860.48 548.33 851.34 543.74 851.81 549.93 C 849.92 550.34 851.38 547.12 851.05 546.04 Z" />
<path fill="#9ad0fe" d=" M 530.05 575.00 C 531.18 566.51 527.79 553.73 531.00 547.00 C 531.02 555.99 530.85 564.98 531.06 573.99 C 531.78 573.98 533.22 573.98 533.94 573.98 C 534.16 564.98 533.95 555.99 534.00 547.00 C 536.23 554.39 534.61 565.93 534.93 574.99 L 530.05 575.00 Z" />
<path fill="#2d9efe" d=" M 851.81 549.93 C 851.34 543.74 860.48 548.33 863.98 546.94 C 867.67 545.71 869.40 546.69 869.15 549.88 C 865.21 556.94 859.89 563.41 856.86 570.91 C 860.95 570.90 865.06 570.96 869.18 571.10 C 867.99 577.85 856.40 572.48 850.94 573.97 C 853.20 566.00 859.47 559.31 863.33 551.89 C 866.09 547.33 854.52 551.17 851.81 549.93 Z" />
<path fill="#f0f8ff" d=" M 548.34 550.25 C 551.35 548.57 554.19 549.98 555.84 552.30 C 559.88 561.47 549.31 557.01 544.99 557.97 C 544.43 555.15 545.13 551.05 548.34 550.25 Z" />
<path fill="#72beff" d=" M 589.97 549.93 C 600.68 548.17 592.43 564.95 595.01 570.94 C 591.16 566.14 598.35 550.98 589.97 549.93 Z" />
<path fill="#c3e4ff" d=" M 598.72 569.29 C 597.95 562.46 593.23 546.34 605.03 549.90 C 594.56 548.47 600.59 562.11 598.72 569.29 Z" />
<path fill="#acd9fe" d=" M 699.96 549.87 C 710.42 548.26 702.59 564.12 704.99 569.93 C 702.55 566.10 704.70 557.76 703.97 552.06 C 704.35 549.61 699.52 552.40 699.96 549.87 Z" />
<path fill="#8ecbfe" d=" M 708.93 569.08 C 707.44 562.83 703.48 545.99 715.21 549.85 C 704.50 548.52 710.39 561.91 708.93 569.08 Z" />
<path fill="#a9d8ff" d=" M 851.81 549.93 C 854.52 551.17 866.09 547.33 863.33 551.89 C 860.36 549.75 853.41 553.28 851.81 549.93 Z" />
<path fill="#82c5fe" d=" M 541.99 570.01 C 540.87 566.30 539.37 554.63 542.02 551.07 C 541.95 557.38 541.98 563.69 541.99 570.01 Z" />
<path fill="#a7d7fe" d=" M 560.01 551.06 C 561.84 554.30 561.83 557.61 559.99 560.99 C 560.02 557.69 559.97 554.33 560.01 551.06 Z" />
<path fill="#b0dbff" d=" M 584.90 551.28 C 585.92 555.57 587.85 568.85 584.96 574.20 C 585.03 566.55 585.01 558.91 584.90 551.28 Z" />
<path fill="#6ebcff" d=" M 845.01 550.99 C 847.12 557.16 845.79 567.11 845.90 574.93 C 845.53 574.74 844.78 574.38 844.41 574.19 C 845.85 566.58 844.66 558.68 845.01 550.99 Z" />
<path fill="#c2e3ff" d=" M 655.24 574.48 C 657.38 567.14 654.76 559.10 656.72 551.73 C 654.94 558.24 660.95 571.67 654.99 575.28 L 655.24 574.48 Z" />
<path fill="#c4e4fe" d=" M 666.26 551.73 C 668.51 559.16 665.79 567.55 667.83 575.22 C 663.52 570.48 666.76 559.04 666.26 551.73 Z" />
<path fill="#c5e5ff" d=" M 695.99 552.06 C 698.22 557.60 696.66 567.61 696.93 574.98 C 695.43 574.79 692.36 575.93 692.91 573.38 C 693.92 573.51 694.94 573.66 695.96 573.82 C 696.12 566.56 696.01 559.31 695.99 552.06 Z" />
<path fill="#7ec4ff" d=" M 581.23 552.73 C 585.34 558.40 577.13 572.46 584.96 574.20 C 585.27 576.07 582.14 574.60 581.04 574.95 C 580.95 567.53 580.77 560.12 581.23 552.73 Z" />
<path fill="#b9dfff" d=" M 738.96 561.00 C 734.19 553.23 748.99 555.09 749.95 556.97 C 746.59 556.93 743.35 556.83 740.04 557.12 C 739.95 561.35 739.71 565.66 740.10 569.91 C 742.96 569.92 746.08 570.09 749.02 570.03 C 742.67 574.39 735.53 569.70 738.96 561.00 Z" />
<path fill="#fbfdff" d=" M 740.04 557.12 C 743.35 556.83 746.59 556.93 749.95 556.97 C 755.01 558.61 754.75 569.67 749.02 570.03 C 746.08 570.09 742.96 569.92 740.10 569.91 C 739.71 565.66 739.95 561.35 740.04 557.12 Z" />
<path fill="#9bd1fe" d=" M 757.00 559.06 C 758.78 558.34 758.80 567.58 757.00 568.04 C 757.03 565.05 756.95 562.00 757.00 559.06 Z" />
<path fill="#b8deff" d=" M 545.00 561.13 C 549.99 560.72 554.98 561.04 559.99 560.99 C 555.79 564.15 541.80 557.34 545.72 569.26 C 544.18 566.92 545.29 563.52 545.00 561.13 Z" />
<path fill="#add9fe" d=" M 684.08 561.95 C 683.19 558.53 689.92 561.65 691.97 561.06 C 689.69 561.43 694.10 569.13 691.06 568.94 C 693.63 561.77 689.40 561.20 684.08 561.95 Z" />
<path fill="#a9d7ff" d=" M 834.08 561.95 C 833.17 558.53 839.92 561.65 841.97 561.06 C 839.67 561.43 844.11 569.13 841.06 568.94 C 843.62 561.77 839.40 561.20 834.08 561.95 Z" />
<path fill="#f7fcff" d=" M 691.06 568.94 C 686.72 577.42 675.12 565.22 684.08 561.95 C 689.40 561.20 693.63 561.77 691.06 568.94 Z" />
<path fill="#f8fcff" d=" M 841.06 568.94 C 836.72 577.42 825.12 565.22 834.08 561.95 C 839.40 561.20 843.62 561.77 841.06 568.94 Z" />
<path fill="#88c8fe" d=" M 715.21 571.31 C 719.60 573.69 710.36 577.71 709.07 574.09 C 711.90 574.15 715.53 575.01 715.21 571.31 Z" />
<path fill="#7ac1fe" d=" M 869.18 571.10 C 871.54 570.95 869.74 580.56 865.00 575.03 C 860.93 573.97 853.58 576.77 850.94 573.97 C 856.40 572.48 867.99 577.85 869.18 571.10 Z" />
</svg>
